<svg id="visual" viewBox="0 0 900 600" width="900" height="600" xmlns="http://www.w3.org/2000/svg" xmlns:xlink="http://www.w3.org/1999/xlink" version="1.1"><rect x="0" y="0" width="900" height="600" fill="#001220"></rect><path d="M0 397L21.5 399C43 401 86 405 128.8 400.7C171.7 396.3 214.3 383.7 257.2 379.5C300 375.3 343 379.7 385.8 384.2C428.7 388.7 471.3 393.3 514.2 388C557 382.7 600 367.3 642.8 374.2C685.7 381 728.3 410 771.2 412.2C814 414.3 857 389.7 878.5 377.3L900 365L900 601L878.5 601C857 601 814 601 771.2 601C728.3 601 685.7 601 642.8 601C600 601 557 601 514.2 601C471.3 601 428.7 601 385.8 601C343 601 300 601 257.2 601C214.3 601 171.7 601 128.8 601C86 601 43 601 21.5 601L0 601Z" fill="#fa7268"></path><path d="M0 456L21.5 454.5C43 453 86 450 128.8 444.2C171.7 438.3 214.3 429.7 257.2 426.8C300 424 343 427 385.8 427.3C428.7 427.7 471.3 425.3 514.2 422.8C557 420.3 600 417.7 642.8 412.8C685.7 408 728.3 401 771.2 406.2C814 411.3 857 428.7 878.5 437.3L900 446L900 601L878.5 601C857 601 814 601 771.2 601C728.3 601 685.7 601 642.8 601C600 601 557 601 514.2 601C471.3 601 428.7 601 385.8 601C343 601 300 601 257.2 601C214.3 601 171.7 601 128.8 601C86 601 43 601 21.5 601L0 601Z" fill="#ef5f67"></path><path d="M0 468L21.5 469.5C43 471 86 474 128.8 478.7C171.7 483.3 214.3 489.7 257.2 484.7C300 479.7 343 463.3 385.8 461C428.7 458.7 471.3 470.3 514.2 475.5C557 480.7 600 479.3 642.8 479C685.7 478.7 728.3 479.3 771.2 478C814 476.7 857 473.3 878.5 471.7L900 470L900 601L878.5 601C857 601 814 601 771.2 601C728.3 601 685.7 601 642.8 601C600 601 557 601 514.2 601C471.3 601 428.7 601 385.8 601C343 601 300 601 257.2 601C214.3 601 171.7 601 128.8 601C86 601 43 601 21.5 601L0 601Z" fill="#e34c67"></path><path d="M0 523L21.5 518.5C43 514 86 505 128.8 502.8C171.7 500.7 214.3 505.3 257.2 507.2C300 509 343 508 385.8 512C428.7 516 471.3 525 514.2 527.8C557 530.7 600 527.3 642.8 519.2C685.7 511 728.3 498 771.2 497.7C814 497.3 857 509.7 878.5 515.8L900 522L900 601L878.5 601C857 601 814 601 771.2 601C728.3 601 685.7 601 642.8 601C600 601 557 601 514.2 601C471.3 601 428.7 601 385.8 601C343 601 300 601 257.2 601C214.3 601 171.7 601 128.8 601C86 601 43 601 21.5 601L0 601Z" fill="#d53867"></path><path d="M0 547L21.5 550.8C43 554.7 86 562.3 128.8 559.2C171.7 556 214.3 542 257.2 535.8C300 529.7 343 531.3 385.8 532.5C428.7 533.7 471.3 534.3 514.2 541C557 547.7 600 560.3 642.8 561.3C685.7 562.3 728.3 551.7 771.2 549C814 546.3 857 551.7 878.5 554.3L900 557L900 601L878.5 601C857 601 814 601 771.2 601C728.3 601 685.7 601 642.8 601C600 601 557 601 514.2 601C471.3 601 428.7 601 385.8 601C343 601 300 601 257.2 601C214.3 601 171.7 601 128.8 601C86 601 43 601 21.5 601L0 601Z" fill="#c62368"></path></svg>